<svg xmlns="http://www.w3.org/2000/svg" viewBox="0 0 63 63" style="height: 0.916667rem; width: 0.916667rem;"><title>add</title><path d="M63,31.55C62.45,49.49,49,63,31.34,62.94A31,31,0,0,1,0,31.35C.11,13.48,13.89,0,31.45.06,49.27.07,62.53,13.82,63,31.55Zm-34.89-16V23c0,5.18,0,5.18-5.16,5.18H15.54v6.68h7.39c5.18,0,5.18,0,5.18,5.16v7.41h6.58c0-.82.09-1.53.09-2.24,0-2.9,0-5.81,0-8.72,0-1.18.39-1.66,1.6-1.62,2.05.06,4.1,0,6.15,0h4.84V28.26c-.82,0-1.53-.09-2.24-.09-2.91,0-5.81-.05-8.72,0-1.19,0-1.67-.39-1.63-1.61.07-2,0-4.09,0-6.14V15.59Z"></path></svg>