<svg xmlns="http://www.w3.org/2000/svg" viewBox="0 0 63 63" style="height: 1.08333rem; width: 1.08333rem;"><path d="M30.61,0h1.78a2.69,2.69,0,0,0,.55.17c1,.11,2.08.16,3.12.29A29.62,29.62,0,0,1,47,4.22a31.43,31.43,0,0,1,7.6,6.09A30.73,30.73,0,0,1,60.4,19.2,29.34,29.34,0,0,1,62.82,30a4,4,0,0,0,.18.76v1.62c-.06.1-.16.2-.17.31a29.85,29.85,0,0,1-1.23,7.74,30.37,30.37,0,0,1-4.11,8.73,31.32,31.32,0,0,1-6.86,7.26,30.84,30.84,0,0,1-8.39,4.62,28.74,28.74,0,0,1-9.32,1.82,3.16,3.16,0,0,0-.53.13H30.61l-.94-.15c-2-.3-4.09-.47-6.08-.94A30.12,30.12,0,0,1,13.06,57a31,31,0,0,1-9.3-10.6A29.81,29.81,0,0,1,.13,33.09a4.11,4.11,0,0,0-.13-.7V30.77c.2-1.61.37-3.22.6-4.83a27.76,27.76,0,0,1,3.25-9.42A31.72,31.72,0,0,1,21.36,1.77,28.07,28.07,0,0,1,29.93.17,2.71,2.71,0,0,0,30.61,0ZM56.72,31.53C56.9,17.66,45.27,6.51,32,6.24A25.48,25.48,0,0,0,6.21,31.44,25.49,25.49,0,0,0,31.28,56.79C45.29,56.89,56.92,45.23,56.72,31.53Z"/><path d="M21.12,38.05l5.2-1.36a21.58,21.58,0,0,0,1.26,2.73c1.54,2.38,5.8,2.59,7.43.42a3.06,3.06,0,0,0-.94-4.6c-1.7-.84-3.48-1.51-5.23-2.23a12.54,12.54,0,0,1-4.47-2.59A8,8,0,0,1,22.13,24a9.47,9.47,0,0,1,1.19-4,7.71,7.71,0,0,1,5.38-3.82c.34-.07.67-.17,1.08-.28V12.75h3.4v3.12l1.94.54c3,.83,4.68,3,5.73,5.81.21.55-.24.6-.51.72C39,23.5,37.61,24,36.27,24.56a31.79,31.79,0,0,0-1.69-2.71,3.69,3.69,0,0,0-5.3-.47,2.94,2.94,0,0,0,.48,4.86c1.48.74,3.05,1.3,4.56,2a27.82,27.82,0,0,1,4.17,2.05,7.69,7.69,0,0,1,3.38,7.44A8.64,8.64,0,0,1,38.74,44a10.19,10.19,0,0,1-4.28,1.89c-.39.09-.79.16-1.25.25v4.22H29.8V46.13C24.94,45.54,22.18,42.74,21.12,38.05Z"/></svg>