<svg xmlns="http://www.w3.org/2000/svg" viewBox="0 0 63 63" style="height: 1.5rem; width: 1.5rem;"><path d="M.12,49.46V7.38A1.8,1.8,0,0,1,2,6.19H61.21a1.79,1.79,0,0,1,1.91,1.19V49.46a1.88,1.88,0,0,1-2,1.14c-6.84,0-13.69,0-20.54,0h-.76v3.72h2.65c1.22,0,1.92.5,1.87,1.38,0,.68-.39,1.38-1.88,1.37-7,0-14,0-21,0-1.26,0-1.94-.49-1.93-1.39s.67-1.35,1.91-1.35h2.63V50.59h-.78c-7.09,0-14.18,0-21.28,0A1.88,1.88,0,0,1,.12,49.46ZM31.63,9.72H6.35c-1.5,0-2,.53-2,2V42.08c0,1.49.51,2,2,2H56.93c1.47,0,2-.53,2-2q0-15.18,0-30.38c0-1.45-.54-2-2-2Z"/></svg>