<svg id="Layer_1" data-name="Layer 1" xmlns="http://www.w3.org/2000/svg" viewBox="0 0 117 117" style="height: 1.25rem; width: 1.25rem;"><defs><style>.cls-1{fill:#f6cb15}.cls-2{fill:#231f20}</style></defs><circle class="cls-1" cx="58.5" cy="58.5" r="58.5"></circle><path class="cls-2" d="M213.58,391.42l-4.64-2.33q10.55-7.56,19.23-10.76t14.8-3.19a11.12,11.12,0,0,1,5.16,1,2.91,2.91,0,0,1,1.79,2.61q0,2-6.84,16.9Q231.94,420,231.94,425a2.09,2.09,0,0,0,.73,1.62,2.37,2.37,0,0,0,1.59.65q3.36,0,17.29-8.52l4.12,2.61q-14.46,8.87-21.1,11.34a32.76,32.76,0,0,1-10.86,2.47,10.1,10.1,0,0,1-5.85-1.51,4.83,4.83,0,0,1-2.17-4.19q0-8.6,15.82-42a6.88,6.88,0,0,0,.74-2.82c0-.92-.63-1.37-1.9-1.37a13,13,0,0,0-4.8,1.09Q222.86,385.52,213.58,391.42ZM255,345.94a9.5,9.5,0,0,1,5.38,1.41,4.19,4.19,0,0,1,2.11,3.6q0,3-3.22,5.33a12.13,12.13,0,0,1-7.22,2.3,9.12,9.12,0,0,1-5.27-1.44,4.38,4.38,0,0,1-2.11-3.78,6.33,6.33,0,0,1,3.06-5.26A12.25,12.25,0,0,1,255,345.94Z" transform="translate(-181 -334.53)"></path></svg>