<svg
    xmlns="http://www.w3.org/2000/svg"
    viewBox="0 0 63 63"
    style="height: 1.5rem; width: 1.5rem;"
>
    <path
        d="M49.68,24.94h-.52V17.67a17.62,17.62,0,0,0-30-12.61L19,5.21a17.59,17.59,0,0,0-5.18,12.46v7.27h-.5a6.59,6.59,0,0,0-4.73,2,6.67,6.67,0,0,0-2,4.76V56.26A6.74,6.74,0,0,0,13.34,63H49.68a6.56,6.56,0,0,0,4.53-1.8L54.4,61a6.75,6.75,0,0,0,2-4.78V31.69a6.62,6.62,0,0,0-2-4.76A6.5,6.5,0,0,0,49.68,24.94ZM19.39,17.67A12,12,0,0,1,23,9.12L23.09,9a11.93,11.93,0,0,1,8.44-3.41A12.1,12.1,0,0,1,43.6,17.67v7.27H19.39ZM47.7,58.45a70.91,70.91,0,0,0-11.11.4c-3.34.4-5.53.93-9.14.77a19,19,0,0,0-3.38,0c-2.35.26-3.17.9-5.62,1.18-1.89.21-2.83.32-3.38,0-2.5-1.46.61-7.73,0-17.64-.46-7.55-2.23-10.83,0-12.93C16.41,29,18.59,29,23,29.06c5,.06,5,1,9.05.94,3.07,0,4-.56,11-1,2.09-.13,4-.21,5,1a6.42,6.42,0,0,1,.87,3.51,25.59,25.59,0,0,1,0,2.6,27.5,27.5,0,0,0,0,3.53,44.89,44.89,0,0,1-1.13,8.23A32.07,32.07,0,0,0,47.7,58.45Z"
    />
    <g>
        <path
            d="M51,28.14a25,25,0,0,0-2.65-3H12.6l-.27.26V61.1l.62.82H48.07c.9-1.22,1.79-2.45,2.63-3.72l.3-.48ZM23.8,56.3H19.1V32.5h4.7Zm19.5-9.7a16.11,16.11,0,0,1-4.4.6c-1.5.1-3.1,0-4.8,0v9H29.3v-24c4.4.2,8.8.2,13.1.6,2.6.2,4.1,2.2,4.8,4.7C48.4,41.5,46.7,45.4,43.3,46.6Z"
        />
        <path
            d="M34.1,36.4c2,.1,3.9.1,5.8.3a3,3,0,0,1,2.6,3.1,2.89,2.89,0,0,1-2.6,3.1c-1.9.2-3.8.3-5.7.4,0-.4-.1-.6-.1-.8Z"
        />
        <path
            d="M34.1,43.3c2-.1,3.9-.1,5.8-.3a3,3,0,0,0,2.6-3.1,2.89,2.89,0,0,0-2.6-3.1c-1.9-.2-3.8-.3-5.7-.4,0,.4-.1.6-.1.8Z"
        />
    </g>
</svg>