<svg
    xmlns="http://www.w3.org/2000/svg"
    x="0px"
    y="0px"
    viewBox="0 0 63 63"
    enable-background="new 337.962 206.102 169.087 178.771"
    style="height: 1.5rem; width: 1.5rem;"
>
    <path
        d="M30.6,23.68a1.45,1.45,0,1,1,0,2.89H7.75l6.57,6.57a1.45,1.45,0,0,1,0,2,1.4,1.4,0,0,
    1-2.06,0l-9-9a2,2,0,0,1-.35-.63l0,0v-.09l0-.24v-.13a1.24,1.24,0,0,1,0-.25v-.08l0,0a2,2,0,
    0,1,.35-.62h0l9-9a1.44,1.44,0,0,1,2.06,0,1.46,1.46,0,0,1,0,2.05L7.75,23.68Zm26,24h0L41.48,
    56.43l16.63-9.52L59,4.49A2.4,2.4,0,0,0,57.86,0H27.13a1.46,1.46,0,0,0-1.48,1.47V12.62a1.48,
    1.48,0,0,0,1.48,1.44,1.46,1.46,0,0,0,1.42-1.44V2.9H52.1L38.07,11a2.37,2.37,0,0,0-1.44,
    2.18V47.37H28.55V38.29a1.45,1.45,0,0,0-1.42-1.46,1.47,1.47,0,0,0-1.48,1.46V48.82a1.49,
    1.49,0,0,0,1.48,1.48h9.5V60.59a2.2,2.2,0,0,0,.34,1.2,2.44,2.44,0,0,0,3.3.9L59,51.88a2.4,2.4,0,1,0-2.4-4.16"
    />
</svg>