<svg xmlns="http://www.w3.org/2000/svg" viewBox="0 0 63 63" style="height: 1.33333rem; width: 1.33333rem;"><title>chip</title><g id="NNJK1l.tif"><path d="M0,31.13l0-1.46c.11-.6.2-1.21.35-1.8C.93,25.44,1.5,23,2.15,20.6a13.18,13.18,0,0,1,1.06-2.87c.67-1.25,1.54-2.39,2.28-3.61a26.87,26.87,0,0,1,5.44-6.25A30.23,30.23,0,0,1,19.4,2.66a31.72,31.72,0,0,1,8-2.17L30.5.05l2.56,0c.1.05.19.15.28.16A30.42,30.42,0,0,1,44,2.69a29.24,29.24,0,0,1,9,5.79A30.59,30.59,0,0,1,61.6,22.35a30.7,30.7,0,0,1-.8,20.43,32.68,32.68,0,0,1-6,9.72A29,29,0,0,1,48,58.19a23.89,23.89,0,0,1-6.78,3.13,66.67,66.67,0,0,1-6.67,1.46,24.47,24.47,0,0,1-7.82-.26c-3.7-.72-7.3-1.63-10.47-3.81-.6-.4-1.38-.54-2-1a35.57,35.57,0,0,1-3.48-2.62A26.91,26.91,0,0,1,5.53,49a36.89,36.89,0,0,1-4-8.23A27.37,27.37,0,0,1,.29,34C.25,33.06.08,32.1,0,31.13Zm33,28.13c8.76.1,17.94-5.9,21.63-12C53.31,46.5,52,45.78,50.8,45a1.66,1.66,0,0,1-.62-2.34A1.78,1.78,0,0,1,52.69,42c1.25.7,2.48,1.44,3.73,2.18a26.72,26.72,0,0,0,3-12.3A31.12,31.12,0,0,0,56.78,19.3c-1.47.8-2.86,1.62-4.31,2.3A1.78,1.78,0,0,1,51,21.5a1.69,1.69,0,0,1,.19-3c1.25-.74,2.53-1.42,3.92-2.21a30.73,30.73,0,0,0-9.31-8.76A27.85,27.85,0,0,0,33.63,3.71c0,.83,0,1.54,0,2.24s0,1.49-.09,2.22-.89,1.71-1.43,1.7A2,2,0,0,1,30.21,8c0-1.41,0-2.82.05-4.31A27.12,27.12,0,0,0,18,7.12a29.44,29.44,0,0,0-9.55,8.56c1.37.85,2.58,1.58,3.78,2.35a1.88,1.88,0,0,1,.75,2.49,2.07,2.07,0,0,1-2.72.42c-1.16-.7-2.34-1.35-3.51-2-1.49,2.31-3.58,8.75-3,14.73a28.09,28.09,0,0,0,2.7,10L8,42.79c.87-.47,1.72-1,2.63-1.42a1.82,1.82,0,0,1,2.12.72A1.85,1.85,0,0,1,12,44.26c-.75.43-1.52.83-2.25,1.28-.55.34-1.07.74-1.66,1.16A28.8,28.8,0,0,0,29.44,59.37c0-.54,0-.9,0-1.26a30.51,30.51,0,0,1,.22-3.32c.2-1.18.91-1.73,1.78-1.62A1.92,1.92,0,0,1,33,55.3C33,56.6,33,57.89,32.94,59.26Z"></path><path d="M50.42,31.62A19,19,0,0,1,31.49,50.43a18.93,18.93,0,1,1,.92-37.84A18.75,18.75,0,0,1,50.42,31.62ZM47,31.53a14.9,14.9,0,0,0-3.16-9.37c-2-2.78-4.91-4.39-8-5.56a10.09,10.09,0,0,0-3.47-.54,16.87,16.87,0,0,0-7,1.39,14.55,14.55,0,0,0-8.34,9.31,14.63,14.63,0,0,0,2.42,14,14.78,14.78,0,0,0,14.17,6A15.26,15.26,0,0,0,47,31.53Z"></path><path d="M15.29,58.55,14,57.8c-.46-.4-.94-.78-1.38-1.21-1.8-1.72-3.61-3.44-5.37-5.21A13.37,13.37,0,0,1,5.34,49c-.74-1.21-1.29-2.53-2-3.78A26.71,26.71,0,0,1,.7,37.38a30.13,30.13,0,0,1-.25-9.94,32.34,32.34,0,0,1,2.13-8c.41-1,.8-1.95,1.2-2.93l1.31-2.2c.1-.05.23-.08.28-.16a30.6,30.6,0,0,1,7.47-8,29.16,29.16,0,0,1,9.53-4.86A30.57,30.57,0,0,1,38.69.87,30.65,30.65,0,0,1,56,11.83,33.07,33.07,0,0,1,61.34,21.9a29.37,29.37,0,0,1,1.49,8.75,24,24,0,0,1-.71,7.44A63.88,63.88,0,0,1,60,44.59a24.34,24.34,0,0,1-4.15,6.62c-2.48,2.84-5.09,5.5-8.56,7.14-.65.31-1.16.92-1.81,1.23a34.66,34.66,0,0,1-4,1.69,26.61,26.61,0,0,1-7.91,1.48,36.35,36.35,0,0,1-9.13-.67A26.75,26.75,0,0,1,18,59.73C17.1,59.28,16.18,58.94,15.29,58.55ZM56.19,44.2c4.49-7.53,3.92-18.47.5-24.73-1.29.71-2.56,1.46-3.87,2.11a1.67,1.67,0,0,1-2.34-.65,1.77,1.77,0,0,1,.69-2.49c1.23-.74,2.5-1.42,3.76-2.14A26.58,26.58,0,0,0,45.8,7.54a31.07,31.07,0,0,0-12.16-4c0,1.67,0,3.28-.18,4.88a1.79,1.79,0,0,1-.84,1.23A1.68,1.68,0,0,1,30.15,8c0-1.45,0-2.9.06-4.51A30.79,30.79,0,0,0,18,7.09a28,28,0,0,0-9.44,8.58l1.93,1.16c.63.39,1.26.77,1.87,1.19a2,2,0,0,1,.75,2.09,2,2,0,0,1-2.58.66l-3.7-2.22A27.11,27.11,0,0,0,3.59,30.93,29.47,29.47,0,0,0,6.18,43.49c1.42-.76,2.67-1.44,3.93-2.09a1.89,1.89,0,0,1,2.53.6,2.07,2.07,0,0,1-1,2.57c-1.19.65-2.34,1.35-3.51,2,1.24,2.44,5.77,7.49,11.24,10a28.17,28.17,0,0,0,10,2.69c0-.69.05-1.23.07-1.77,0-1,0-2,.09-3A1.84,1.84,0,0,1,31.19,53a1.86,1.86,0,0,1,1.49,1.76c0,.86,0,1.72,0,2.59,0,.64.1,1.29.16,2a28.8,28.8,0,0,0,21.7-12.09c-.46-.27-.78-.45-1.08-.64a31,31,0,0,1-2.76-1.86c-.92-.77-1-1.66-.5-2.36a1.9,1.9,0,0,1,2.6-.25Z"></path><path d="M41.09,15.19A19,19,0,0,1,47.83,41,18.93,18.93,0,1,1,15.58,21.19,18.76,18.76,0,0,1,41.09,15.19Zm-1.82,3a15,15,0,0,0-9.7-2c-3.39.31-6.27,2-8.85,4.15a10.28,10.28,0,0,0-2.21,2.73,17,17,0,0,0-2.34,6.77A14.62,14.62,0,0,0,20,41.71a14.61,14.61,0,0,0,13.35,5,14.78,14.78,0,0,0,12.28-9.25,15.26,15.26,0,0,0-6.39-19.29Z"></path></g></svg>