<svg xmlns="http://www.w3.org/2000/svg" viewBox="0 0 63 63" style="height: 1.5rem; width: 1.5rem;"><path d="M24.06,10.45h0l1.51-1.51,1-1L24.44,5.82,5.84,24.49l2.1,2.09,2.47-2.51.11-.11L24.06,10.45Zm6.7,38.88h0l0,.05-1.23,1.23,2.09,2.1L52.69,31.58l-2.1-2.08-.55.56,0,0h0l-.61.64,0,0L30.76,49.33Zm-1.34-37.4h0l18,13.87,1.33-1.31.14-.14a2.42,2.42,0,0,1,3.4,0l5.5,5.5,0,0a2.44,2.44,0,0,1,0,3.42L47.29,43.86l15,15a2.41,2.41,0,0,1-3.41,3.41l-15-15L33.3,57.85h0a2.46,2.46,0,0,1-3.43,0l-5.38-5.42-.13-.11a2.44,2.44,0,0,1,0-3.43l1.46-1.45-13.9-18L9.69,31.64l0,0h0a2.42,2.42,0,0,1-3.4,0L.83,26.28l-.12-.12a2.43,2.43,0,0,1,0-3.44L22.76.71a2.4,2.4,0,0,1,3.4,0l5.51,5.48v0a2.44,2.44,0,0,1,0,3.43l-2.25,2.27Z"/></svg>