<svg xmlns="http://www.w3.org/2000/svg" viewBox="0 0 63 63" style="height: 1.5rem; width: 1.5rem;"><path d="M62.27,20.08,43,.74l0,0a2.46,2.46,0,0,0-3.45,0L.71,39.48l-.09.09,0,0,0,0v0l0,0v0l0,0v0h0l0,0h0l0,0h0l0,0,0,0v0l0,0v0h0v0l0,0v0h0v.05l0,0v0l0,0v.06l0,0v0h0l0,0v.13l0,0V41l0,0V60.55A2.42,2.42,0,0,0,2.43,63H22l.07,0h.15l.09,0,0,0h.14l0,0,.1,0,.14,0,0,0h.07l0,0,.05,0,.06,0,0,0,.06,0,.07,0,0,0,.07,0,0,0,.05,0,0-.05.06,0,0,0,.06-.05L62.27,23.52a2.4,2.4,0,0,0,0-3.44M41.19,5.86h0l2.88,2.88L8.77,44.12,5.85,41.19ZM4.85,58.14h0V47l11.09,11.1Zm17-1h0L18.9,54.24,54.24,18.91l2.92,2.92Z"/></svg>