<svg xmlns="http://www.w3.org/2000/svg" viewBox="0 0 63 63" style="height: 1.5rem; width: 1.5rem;"><path d="M42.08,0c.63.19,1.27.33,1.87.56a4.84,4.84,0,0,1,3.18,4.1,11.27,11.27,0,0,1,.1,1.54V56.81a5.76,5.76,0,0,1-1.68,4.64A6.08,6.08,0,0,1,41.37,63c-6.58,0-13.16.05-19.74,0a5.53,5.53,0,0,1-5.22-2.87,6.74,6.74,0,0,1-.64-3.28V7.24c0-.63,0-1.27,0-1.9A5.25,5.25,0,0,1,20.45.12c.16,0,.31-.08.47-.12Zm2.25,7.16H18.68v45.7H44.33ZM28.66,57.73a2.84,2.84,0,1,0,2.86-2.85A2.86,2.86,0,0,0,28.66,57.73Zm2.9-54.88c-1.19,0-2.38,0-3.57,0-.55,0-.79.22-.78.75s.23.72.76.72c2.36,0,4.71,0,7.07,0,.53,0,.75-.22.75-.72s-.18-.76-.73-.75C33.89,2.87,32.73,2.85,31.56,2.85Z"/></svg>