<svg
	xmlns="http://www.w3.org/2000/svg"
	viewBox="341.368 229.511 159.482 136.858"
	x="0px"
	y="0px"
	enable-background="new 341.368 229.511 159.482 136.858"
	style="height: 1.5rem; width: 1.5rem;"
>
    <path
        d="M451.722,366.369c-0.291-0.106-0.779-0.252-1.24-0.465c-26.531-12.259-53.062-24.521-79.591-36.787
		c-1.851-0.855-2.104-1.574-1.211-3.398c15.458-31.517,30.917-63.034,46.377-94.551c0.854-1.738,1.636-2.034,3.366-1.233
		c26.61,12.295,53.217,24.593,79.825,36.895c1.703,0.788,1.979,1.565,1.156,3.238c-15.482,31.554-30.971,63.104-46.445,94.661
		C453.521,365.617,453.064,366.389,451.722,366.369z M440.771,288.888c-0.275-1.449-0.451-3.243-0.969-4.932
		c-1.916-6.246-7.584-9.798-14.012-8.797c-3.438,0.535-6.119,2.43-8.342,5.044c-4.27,5.018-4.914,10.143-1.86,15.955
		c0.927,1.765,2.025,3.457,3.192,5.076c3.76,5.212,7.014,10.631,7.598,17.254c6.385-3.261,8.516-3.943,15.986-5.013
		c3.113-0.446,6.275-0.634,9.355-1.241c8.27-1.633,11.314-8.074,11.291-14.608c-0.027-7.874-7.426-13.431-15.217-11.56
		C445.332,286.659,443.037,287.957,440.771,288.888z M428.158,250.998c0.066,0.096,0.131,0.19,0.195,0.285
		c-1.063,1.291-1.994,2.734-3.232,3.826c-1.045,0.921-2.375,1.779-3.707,2.059c-3.623,0.765-6.304-1.674-6.751-5.931
		c-0.776-0.136-1.583-0.277-2.436-0.428c-0.313,2.098,0.145,3.841,1.391,5.383c2.989,3.701,8.403,4.44,12.108,1.477
		c3.746-2.998,5.998-7.021,7.184-11.628c0.238-0.922,0.297-1.964,0.141-2.9c-0.748-4.458-5.021-7.412-9.848-6.9
		c-3.125,0.332-5.917,3.07-6.767,6.639c-0.713,2.994,0.484,5.691,3.338,7.486C422.433,252.04,425.216,252.42,428.158,250.998z
		 M458.673,341.604c0.301-2.339,0.039-3.838-1.07-5.246c-2.521-3.204-7.758-5.707-12.637-1.763c-3.16,2.556-5.293,5.881-6.721,9.636
		c-1.939,5.097,0.256,9.537,5.449,11.159c3.002,0.938,5.762,0.464,8.016-1.826c2.152-2.186,3.326-4.773,2.439-7.891
		c-1.035-3.633-5.83-6.264-9.633-5.371c-0.592,0.14-1.172,0.332-1.91,0.545c1.287-2.105,2.707-3.84,4.66-5.067
		c2.018-1.269,4.07-1.319,6.166-0.155c2.133,1.184,3.105,2.955,2.699,5.441C457.039,341.257,457.818,341.421,458.673,341.604z"
    />
    <path
        d="M409.663,237.461c-14.327,30.725-28.546,61.22-42.815,91.819c14.748,6.958,29.418,13.88,44.378,20.938
		c-6.358,1.556-12.373,3.029-18.389,4.498c-7.229,1.765-14.459,3.521-21.687,5.285c-2.188,0.533-2.798,0.188-3.369-2.021
		c-8.487-32.805-16.971-65.61-25.453-98.416c-0.277-1.071-0.547-2.143-0.816-3.215c-0.399-1.591-0.001-2.31,1.597-2.702
		c7.722-1.894,15.448-3.77,23.173-5.652c14.044-3.424,28.089-6.849,42.134-10.272C408.74,237.645,409.068,237.586,409.663,237.461z
		 M360.396,264.039c2.415-4.004,4.727-7.834,7.188-11.914c-1.271,0.309-2.221,0.512-3.15,0.783c-0.241,0.07-0.484,0.317-0.619,0.547
		c-2.587,4.402-5.156,8.815-7.734,13.223c-0.088,0.151-0.234,0.27-0.482,0.549c-1.008-3.874-1.968-7.563-2.955-11.356
		c-0.877,0.227-1.751,0.454-2.487,0.644c2.026,7.568,4.015,14.99,6.043,22.564c0.776-0.195,1.658-0.415,2.51-0.629
		c-0.693-2.455-1.359-4.78-1.996-7.113c-0.106-0.392-0.259-0.914-0.094-1.212c0.752-1.361,1.608-2.665,2.497-4.098
		c3.863,2.933,7.589,5.769,11.331,8.584c0.346,0.262,0.814,0.59,1.185,0.544c0.947-0.115,1.872-0.425,2.951-0.692
		C369.77,270.928,365.122,267.512,360.396,264.039z"
    />
    <path
        d="M424.843,249.824c-3.357-0.019-6.017-2.365-6.013-5.305c0.005-3.266,2.826-6.172,5.933-6.114
		c3.264,0.062,5.912,2.594,5.912,5.648C430.673,247.353,428.156,249.844,424.843,249.824z"
    />
    <path
        d="M445.826,353.507c-3.291-0.08-5.916-2.609-5.875-5.661c0.045-3.232,2.725-5.817,5.932-5.724
		c3.402,0.099,6.039,2.541,5.965,5.525C451.769,350.846,448.957,353.582,445.826,353.507z"
    />
</svg>