<svg xmlns="http://www.w3.org/2000/svg" viewBox="0 0 63 63" style="height: 1.5rem; width: 1.5rem;"><path d="M40.76,47.93c-10.66,6.6-22.62,5.25-31-1.27A26.27,26.27,0,0,1,.65,19.49,26.58,26.58,0,0,1,22.55.23,26.27,26.27,0,0,1,52.11,22.74a24.08,24.08,0,0,1-3,15.91c-1,1.62-.72,2.47.58,3.71,4,3.83,8,7.8,11.86,11.78,3,3.07,1.85,7.45-2.23,8.66-2.15.64-3.81-.31-5.28-1.77l-12.3-12.2C41.43,48.54,41.13,48.28,40.76,47.93Zm1.35-21.79A16.17,16.17,0,0,0,26,10.11,16.33,16.33,0,0,0,9.93,26.18a16.33,16.33,0,0,0,16.14,16A16.16,16.16,0,0,0,42.11,26.14Z"/></svg>