<svg version="1.1" id="圖層_1" xmlns="http://www.w3.org/2000/svg" xmlns:xlink="http://www.w3.org/1999/xlink" x="0px" y="0px" viewBox="0 0 63 63" style="height: 1.5rem; width: 1.5rem;" xml:space="preserve"> <title>top</title> <g> <path d="M0,24.4C0,12,8.3,2.4,19,0.9c12.2-1.9,23.7,6.4,25.6,18.6c0,0.2,0,0.4,0.1,0.6c0.7,4.6-0.1,9.4-2.5,13.4
		c-1.1,1.9-0.9,2.8,0.7,4.3c3.3,3.3,6.7,6.6,10,9.9c0.2,0.2,0.4,0.4,0.6,0.7c1.3,1.5,1.3,3.7-0.2,5.1c-1.4,1.5-3.8,1.6-5.3,0.3
		l-0.1-0.1c-1.5-1.4-3-2.9-4.5-4.3c-2.5-2.4-4.9-4.8-7.3-7.2c-0.3-0.5-1.1-0.7-1.6-0.3c0,0,0,0,0,0c-0.1,0-0.1,0.1-0.2,0.1
		c-8.6,5.4-19.7,4.4-27.2-2.5C2.9,35.6,0.3,30.2,0,24.4z M37.1,23c0-8-6.5-14.6-14.5-14.7c-8.1,0-14.7,6.5-14.8,14.6
		c0.1,8,6.5,14.5,14.4,14.7c8.1,0.1,14.8-6.3,14.9-14.4c0,0,0,0,0,0V23z"></path> <path d="M63,62.4H41.2v-2.9H22.4v-13c1.7-0.2,3.3-0.4,4.9-0.4c3.3-0.1,6.5,0.1,9.8-0.1c1.5-0.1,2.2,0.7,3.1,1.8H24.7
		c0,0.2-0.1,0.5-0.1,0.7V57c0,0.5,0,0.8,0.7,0.8h15.7c0.1,0,0.2,0,0.3-0.1v-3h3.9c1.3-0.1,2.6,0.1,3.7,0.7c1.3,0.7,2.7,0.3,4.1-0.3
		c0.4-0.2,0.9-0.3,1.3-0.3H63V62.4z"></path> <path d="M62.9,31.4H45c-0.2,0-0.5,0.2-0.6,0.4c-0.5,0.9-0.9,1.8-1.4,2.7c-0.5,0.6-0.4,1.5,0.2,2c0.7,0.7,1.3,1.4,2.1,2
		c0.4,0.3,0.8,0.5,1.3,0.5c5.2,0,10.4,0,15.6-0.1H63L62.9,31.4L62.9,31.4z"></path> <path d="M50.3,43.2H63v7.6h-5.5c-0.5,0-1.2,0.2-1.6-0.1s-0.3-1-0.5-1.4c-0.4-0.8-0.9-1.5-1.5-2.2c-1.2-1.2-2.4-2.4-3.7-3.5
		L50.3,43.2z"></path> <path d="M43,50.7h-1.7v-1.9L43,50.7z"></path> <path d="M22.4,27.1H10.1c0-3.1-0.2-6.2,0.1-9.2c0.1-1.1,1.1-2.2,1.8-3.3c0.4-0.7,1.2-1.1,2.1-1h17.2c0.6,0,1.1,0.2,1.4,0.6
		c2.8,3.3,3.9,7.7,2.9,11.9c-0.2,0.7-0.4,0.9-1.2,0.9c-2.9,0-5.8,0-8.7,0h-1v7.3h4.6c-2,1.5-4.3,1.9-6.8,2.2V27.1z"></path> </g> </svg>