<svg xmlns="http://www.w3.org/2000/svg" viewBox="0 0 63 63" style="height: 2rem; width: 2rem;"><path d="M31.49,30.14c-1.44,1.46-2.84,2.89-4.25,4.3-5.06,5.06-10.15,10.1-15.19,15.18-2,2.05-4.84,2.16-6.37.91A29.08,29.08,0,0,1,.83,45.65c-1.42-1.86-.93-4.42.81-6.2,2.08-2.13,4.2-4.22,6.31-6.33q9.81-9.81,19.63-19.64A5.12,5.12,0,0,1,33.25,12a6,6,0,0,1,2.14,1.38q10.38,10.32,20.7,20.7C57.73,35.7,59.36,37.36,61,39A5.72,5.72,0,0,1,63,42.62a4.48,4.48,0,0,1-1,3.52,47.11,47.11,0,0,1-4.12,4.12,4.87,4.87,0,0,1-6.31-.19c-1.85-1.73-3.61-3.55-5.41-5.33L31.88,30.48C31.78,30.38,31.67,30.3,31.49,30.14Z"/></svg>