<svg xmlns="http://www.w3.org/2000/svg" viewBox="0 0 63 63" style="height: 1.5rem; width: 1.5rem;"><path d="M58.39,18.23,40.83.72A2.34,2.34,0,0,0,39.11,0H10.44A6.54,6.54,0,0,0,3.93,6.48v50a6.43,6.43,0,0,0,1.91,4.57h0A6.49,6.49,0,0,0,10.44,63H52.58a6.55,6.55,0,0,0,4.54-1.88l0,0h0a6.49,6.49,0,0,0,1.91-4.57V20A2.66,2.66,0,0,0,58.39,18.23Zm-31,14.25h0a.59.59,0,0,0,.38.11h7.59a5.71,5.71,0,0,1,3.74,1.67h0a5.71,5.71,0,0,1,1.64,4v4.79a5.6,5.6,0,0,1-5.6,5.61H34.05v1.62a2.57,2.57,0,1,1-5.13,0V48.69H27.83a5.56,5.56,0,0,1-4-1.64,5.73,5.73,0,0,1-1.65-4,2.57,2.57,0,0,1,5.14,0,.54.54,0,0,0,.12.36.51.51,0,0,0,.4.16h7.4a.49.49,0,0,0,.32-.16.43.43,0,0,0,.17-.36V38.29a.64.64,0,0,0-.17-.41.62.62,0,0,0-.32-.11h-7.4l-.25,0a5.57,5.57,0,0,1-3.76-1.64,5.87,5.87,0,0,1-1.65-4V27.28a5.8,5.8,0,0,1,1.65-4,5.59,5.59,0,0,1,4-1.67h1.09V20.06a2.57,2.57,0,1,1,5.13,0v1.58h1.18a5.47,5.47,0,0,1,3.93,1.67h0a5.76,5.76,0,0,1,1.64,4,2.56,2.56,0,0,1-5.11,0,.53.53,0,0,0-.17-.35.51.51,0,0,0-.32-.17h-7.4a.47.47,0,0,0-.38.17.56.56,0,0,0-.14.35v4.79A.74.74,0,0,0,27.43,32.48Zm15.74-14a2.5,2.5,0,0,1-1.81-.76l-.07-.07a2.45,2.45,0,0,1-.72-1.77V7.31L51.79,18.48Z"/></svg>